<svg width="24" height="24" viewBox="0 0 24 24" fill="none" xmlns="http://www.w3.org/2000/svg">
<rect width="24" height="24" rx="4" fill="#55B977"/>
<path d="M12 4.125C14.0886 4.125 16.0916 4.95469 17.5685 6.43153C19.0453 7.90838 19.875 9.91142 19.875 12C19.875 14.0886 19.0453 16.0916 17.5685 17.5685C16.0916 19.0453 14.0886 19.875 12 19.875C9.91142 19.875 7.90838 19.0453 6.43153 17.5685C4.95469 16.0916 4.125 14.0886 4.125 12C4.125 9.91142 4.95469 7.90838 6.43153 6.43153C7.90838 4.95469 9.91142 4.125 12 4.125ZM11.019 13.5536L9.26962 11.8031C9.20691 11.7404 9.13246 11.6907 9.05052 11.6567C8.96858 11.6228 8.88075 11.6053 8.79206 11.6053C8.70337 11.6053 8.61555 11.6228 8.53361 11.6567C8.45167 11.6907 8.37721 11.7404 8.3145 11.8031C8.18784 11.9298 8.11669 12.1016 8.11669 12.2807C8.11669 12.4598 8.18784 12.6316 8.3145 12.7582L10.542 14.9858C10.6045 15.0488 10.6789 15.0988 10.7609 15.133C10.8429 15.1671 10.9308 15.1847 11.0196 15.1847C11.1084 15.1847 11.1963 15.1671 11.2782 15.133C11.3602 15.0988 11.4346 15.0488 11.4971 14.9858L16.1096 10.3721C16.1732 10.3097 16.2237 10.2353 16.2584 10.1532C16.293 10.0711 16.3111 9.98293 16.3115 9.89383C16.3119 9.80472 16.2947 9.71642 16.2608 9.63401C16.2269 9.5516 16.1771 9.47672 16.1141 9.41367C16.0511 9.35063 15.9763 9.30068 15.8939 9.2667C15.8115 9.23272 15.7233 9.21538 15.6342 9.21569C15.5451 9.216 15.4569 9.23395 15.3748 9.2685C15.2926 9.30305 15.2182 9.35352 15.1556 9.417L11.019 13.5536Z" fill="white"/>
</svg>
